<?xml version="1.0" encoding="utf-8"?>
<!-- Generator: Adobe Illustrator 25.2.0, SVG Export Plug-In . SVG Version: 6.00 Build 0)  -->
<svg version="1.1" xmlns="http://www.w3.org/2000/svg" xmlns:xlink="http://www.w3.org/1999/xlink" x="0px" y="0px"
	 viewBox="0 0 300 300" style="enable-background:new 0 0 300 300;" xml:space="preserve">
<style type="text/css">
	.st0{fill:#D18933;}
</style>
<g id="Layer_1">
</g>
<g id="Layer_2">
	<g>
		<g>
			<path class="st0" d="M117.91,123.94c2.32,2.95,5.02,5.43,8.33,7.24c1.27,0.7,2.58,1.31,3.8,2.11c0.67,0.44,1.51,0.67,2.3,0.88
				c0.44,0.11,0.95,0,1.43-0.05c0.31-0.03,0.61-0.14,0.91-0.23c3.24-0.94,4.43-3.02,4.34-6.09c-0.03-1.04-0.26-2.09-0.5-3.12
				c-1.01-4.39-2.59-8.59-4.95-12.41c-3.85-6.23-7.85-12.37-11.81-18.53c-1-1.56-2.09-3.07-3.49-4.31
				c-0.72-0.63-1.53-1.19-2.36-1.66c-0.94-0.52-1.68-0.32-2.34,0.52c-0.37,0.47-0.73,0.97-0.96,1.51c-0.46,1.07-0.89,2.16-1.21,3.28
				c-0.77,2.69-1.22,5.45-1.25,8.06c-0.16,2.43,0.06,4.65,0.51,6.83C111.87,113.83,114.18,119.21,117.91,123.94z"/>
			<path class="st0" d="M74.74,131.15c2.57,1.23,5.21,2.31,7.73,3.63c3.21,1.68,6.54,3.09,9.9,4.4c4.6,1.79,9.39,2.94,14.17,4.11
				c3.19,0.78,6.43,1.22,9.72,1.27c0.63,0.04,1.25,0.07,1.88,0.13c1.03,0.09,1.88-0.28,2.66-0.93c1.32-1.09,1.53-2.53,1.34-4.1
				c-0.02-0.16-0.12-0.33-0.24-0.44c-0.65-0.64-1.31-1.26-1.98-1.88c-1.69-1.57-3.43-3.09-5.08-4.71c-2.57-2.53-5.3-4.84-8.51-6.54
				c-0.5-0.27-0.96-0.61-1.45-0.91c-1.63-1-3.19-2.12-4.9-2.96c-2.65-1.3-5.39-2.45-8.12-3.6c-1.87-0.78-3.81-1.34-5.83-1.61
				c-2.83-0.38-5.58-0.07-8.18,1.11c-2.13,0.97-4.16,2.14-5.99,3.6c-1.09,0.87-2.22,1.7-3.1,2.81c-0.54,0.67-0.64,1.37-0.28,2.15
				c0.46,0.98,1.09,1.8,2.08,2.31C71.95,129.71,73.32,130.47,74.74,131.15z"/>
			<path class="st0" d="M91.25,116.66c1.29,0.46,2.55,0.98,3.81,1.5c3.84,1.56,7.53,3.39,10.91,5.8c0.37,0.26,0.75,0.52,1.16,0.72
				c2.3,1.13,4.27,2.73,6.21,4.36c1.15,0.97,2.2,2.07,3.31,3.09c1.78,1.64,3.57,3.27,5.35,4.92c0.23,0.21,0.42,0.46,0.63,0.7
				c2.31,2.63,5.65,1.77,7.37-0.28c0.69-0.82,0.6-1.64-0.2-2.35c-0.64-0.57-1.35-1.08-2.15-1.45c-1.73-0.8-3.42-1.69-4.98-2.81
				c-3.92-2.82-6.82-6.52-9.23-10.65c-2.1-3.6-3.41-7.51-4.34-11.55c-0.15-0.65-0.46-1-1.05-1.17c-1.04-0.3-2.09-0.58-3.2-0.42
				c-3.52,0.38-6.94,1.19-10.28,2.38c-1.4,0.5-2.72,1.16-3.95,2.01c-0.79,0.55-1.44,1.2-1.73,2.15c-0.21,0.69-0.13,1.3,0.42,1.8
				C89.9,115.92,90.49,116.39,91.25,116.66z"/>
			<path class="st0" d="M74.82,140.88c3.47-0.82,7-1.25,10.57-1.16c1.13,0.03,2.26,0,3.56,0c-2.88-1.41-5.56-2.73-8.25-4.02
				c-2.67-1.27-5.37-2.49-8.04-3.74c-0.27-0.13-0.47-0.08-0.72,0.02c-1.08,0.44-1.91,1.23-2.77,1.97c-1.29,1.09-1.69,2.44-1.24,4.06
				c0.22,0.79,0.61,1.42,1.41,1.7c1.12,0.4,2.25,0.8,3.39,1.15C73.4,141.07,74.1,141.05,74.82,140.88z"/>
			<path class="st0" d="M113.84,153.99c1.72,0.38,2.75-0.37,3.37-1.59c0.34-0.66,0.6-1.35,0.9-2.03c0.42-0.91,0.47-1.87,0.42-2.85
				c-0.03-0.76-0.53-1.26-1.29-1.34c-0.31-0.03-0.63-0.03-0.94-0.02c-2.57,0.04-5.12-0.26-7.64-0.75
				c-4.97-0.98-9.84-2.39-14.68-3.88c-0.27-0.08-0.55-0.15-0.83-0.16c-1.88-0.01-3.76-0.01-5.64-0.01c0,0,0-0.01,0-0.01
				c-1,0-2,0.02-2.99,0c-2.35-0.06-4.67,0.19-6.97,0.6c-5.38,0.94-10.54,2.63-15.49,4.91c-1.8,0.83-3.42,1.95-4.75,3.44
				c-0.51,0.57-0.94,1.22-1.28,1.9c-0.48,0.97-0.25,1.34,0.79,1.72c0.81,0.29,1.65,0.27,2.45,0.11c2.59-0.51,5.22-0.44,7.83-0.59
				c2.5-0.14,5.01-0.15,7.52-0.24c0.88-0.03,1.76-0.1,2.64-0.19c3.43-0.38,6.87-0.59,10.32-0.66c1.4-0.03,2.79-0.11,4.18-0.21
				c3.19-0.22,6.38-0.16,9.56,0.13c1.84,0.17,3.68,0.36,5.51,0.62C109.18,153.2,111.53,153.49,113.84,153.99z"/>
			<path class="st0" d="M206.59,128.47c-1.52,1.05-3.08,2.06-4.65,3.05c-5.01,3.17-10.11,6.17-15.63,8.42
				c-2.36,0.96-4.77,1.71-7.31,1.99c-0.56,0.06-1.05,0.29-1.44,0.68c-0.85,0.84-0.53,2.11,0.61,2.41c0.4,0.11,0.86,0.18,1.26,0.1
				c1.34-0.26,2.68-0.54,3.99-0.92c2.73-0.79,5.43-1.71,8.18-2.45c4.09-1.1,8.21-2.09,12.25-3.41c5.7-1.87,11.52-3.37,17.15-5.49
				c3.41-1.28,6.9-2.33,10.31-3.61c2.32-0.87,4.52-2.02,6.83-2.92c3.85-1.49,7.63-3.15,11.32-5c2.29-1.14,4.52-2.42,6.77-3.64
				c0.04-0.02,0.06-0.09,0.11-0.19c-0.27-0.08-0.52-0.2-0.78-0.24c-1.58-0.23-3.15-0.59-4.73-0.63c-2.47-0.07-4.96-0.13-7.42,0.29
				c-2.07,0.36-4.17,0.6-6.23,1.05c-1.8,0.4-3.55,1.02-5.33,1.53c-2.98,0.85-5.97,1.66-8.9,2.72c-2.97,1.07-5.99,2-9,2.95
				C211.37,125.98,208.84,126.91,206.59,128.47z"/>
			<path class="st0" d="M95.54,168.77c0.97,0,1.94,0.02,2.9,0c1.6-0.04,3.19-0.11,4.79-0.17c2.23-0.09,4.42-0.37,6.57-1
				c2.13-0.63,4.23-1.36,6.19-2.42c0.7-0.38,1.37-0.81,1.69-1.62c0.56-1.4,0.54-2.84,0.34-4.29c-0.06-0.47-0.26-0.94-0.48-1.37
				c-0.32-0.62-0.78-1.12-1.51-1.28c-0.92-0.2-1.82-0.44-2.75-0.58c-1.61-0.24-3.23-0.38-4.85-0.2c-2.66,0.29-5.31,0.64-7.98,0.88
				c-1.64,0.15-3.3,0.19-4.95,0.17c-2.31-0.03-4.61-0.17-6.92-0.27c-2.29-0.1-4.55,0.17-6.79,0.61c-2.99,0.58-5.99,1.12-8.98,1.66
				c-1.54,0.28-3.12,0.39-4.62,0.8c-3.35,0.91-6.67,1.91-9.97,2.97c-4.51,1.44-8.85,3.29-12.99,5.63c-2,1.13-3.59,2.71-5.18,4.3
				c-1.09,1.08-0.75,2.1,0.71,2.51c0.11,0.03,0.22,0.04,0.34,0.06c1.74,0.33,3.47,0.16,5.16-0.28c3.19-0.83,6.37-1.73,9.56-2.55
				c4.19-1.08,8.43-1.94,12.72-2.5c2.03-0.27,4.06-0.56,6.1-0.79c1.9-0.21,3.8-0.48,5.7-0.5c5.07-0.05,10.15,0.02,15.22,0.05
				C95.54,168.63,95.54,168.7,95.54,168.77z"/>
			<path class="st0" d="M135.71,98.55c0.25,3.3,0.47,6.6,0.66,9.9c0.1,1.68,0.09,3.36,0.19,5.04c0.03,0.56,0.19,1.12,0.39,1.65
				c0.39,1.04,0.86,2.05,1.27,3.08c1.11,2.79,2.01,5.64,2.32,8.64c0.15,1.49,0.95,2.51,2.2,3.23c1.41,0.81,2.94,1.06,4.54,0.87
				c2.27-0.26,3.93-1.49,4.98-3.46c0.5-0.94,0.85-1.99,1.09-3.02c0.34-1.47,0.52-2.97,0.77-4.46c0.32-1.88,0.73-3.76,0.92-5.65
				c0.31-3.12,0.48-6.25,0.69-9.26c-0.1-1.64-0.14-3.15-0.28-4.65c-0.23-2.53-0.5-5.05-0.78-7.57c-0.26-2.35-0.49-4.71-0.83-7.05
				c-0.23-1.61-0.66-3.18-1.47-4.62c-0.67-1.17-1.63-2-2.97-2.25c-0.72-0.13-1.48-0.2-2.21-0.14c-4.24,0.38-7.32,2.53-9.47,6.17
				c-1.15,1.94-1.76,4.06-2.37,6.2c-0.46,1.61-0.43,3.2-0.09,4.82C135.43,96.87,135.65,97.7,135.71,98.55z"/>
			<path class="st0" d="M216.82,114.1c-3.76,3.05-7.55,6.08-11.33,9.1c-2.48,1.98-5.08,3.76-7.88,5.25
				c-3.07,1.63-6.13,3.28-9.13,5.03c-3.4,1.98-6.76,4.01-10.48,5.35c-0.24,0.09-0.46,0.22-0.66,0.37c-0.31,0.24-0.51,0.56-0.37,0.97
				c0.15,0.45,0.55,0.46,0.92,0.4c0.53-0.09,1.05-0.27,1.58-0.35c1.55-0.23,3.07-0.62,4.54-1.16c3.92-1.43,7.66-3.25,11.22-5.39
				c4.1-2.47,8.14-5.04,12.14-7.66c3.29-2.15,6.48-4.45,9.74-6.65c1.58-1.07,3.15-2.19,4.84-3.06c3.14-1.6,6.34-3.11,9.57-4.52
				c2.42-1.05,4.94-1.89,7.42-2.81c1.15-0.42,2.31-0.81,3.47-1.17c2.14-0.66,4.29-1.3,6.6-2c-1.35-0.23-2.56-0.44-3.78-0.37
				c-1.56,0.1-3.13,0.18-4.67,0.44c-2.18,0.37-4.36,0.83-6.51,1.37c-3.53,0.89-7.01,1.94-10.46,3.13
				C221.11,111.26,218.86,112.45,216.82,114.1z"/>
			<path class="st0" d="M161.01,126.33c0.25,1.73,1.22,2.92,2.79,3.59c0.97,0.42,2.03,0.28,3.04,0.12c1.04-0.16,2.1-0.41,2.83-1.26
				c1.32-1.53,2.72-3,3.76-4.76c1.3-2.18,2.57-4.37,3.89-6.53c1.15-1.87,2.31-3.73,3.19-5.75c0.34-0.78,0.75-1.54,1.09-2.32
				c1.34-3.05,2.69-6.09,3.99-9.15c0.8-1.89,1.47-3.82,2.26-5.71c1.53-3.62,3.29-7.15,4.54-10.88c1.33-3.98,2.82-7.88,4.91-11.53
				c0.12-0.21,0.19-0.45,0.32-0.76c-0.22,0.04-0.36,0.05-0.49,0.09c-1.05,0.37-2.1,0.71-3.13,1.13c-3.64,1.49-6.93,3.58-9.98,6.04
				c-1.35,1.09-2.69,2.22-3.85,3.51c-1.35,1.5-2.49,3.19-3.74,4.77c-0.55,0.69-1.08,1.41-1.75,1.98c-2.94,2.49-5.47,5.32-7.43,8.65
				c-0.73,1.25-1.54,2.48-2.1,3.81c-2.1,5.02-3.41,10.26-4.27,15.62c-0.37,2.31-0.58,4.64-0.19,6.98
				C160.83,124.75,160.9,125.55,161.01,126.33z"/>
			<path class="st0" d="M186.59,128.11c-2.6,2.53-5.39,4.83-8.65,6.5c-0.5,0.26-0.98,0.58-1.44,0.93c-0.29,0.22-0.56,0.49-0.75,0.8
				c-0.4,0.64-0.03,1.29,0.73,1.3c0.29,0,0.6-0.12,0.89-0.23c0.34-0.13,0.66-0.32,1-0.47c2.34-0.98,4.6-2.11,6.79-3.39
				c3.76-2.19,7.6-4.26,11.4-6.4c1.46-0.83,2.97-1.6,4.32-2.59c3.12-2.3,6.2-4.66,9.2-7.11c3.67-3,7.31-6.01,11.31-8.56
				c3.87-2.47,8-4.49,12.05-6.63c2.21-1.17,4.55-2.08,6.83-3.13c0.69-0.32,1.36-0.69,2.04-1.04c-0.01-0.08-0.02-0.16-0.03-0.25
				c-0.48-0.15-0.95-0.35-1.45-0.42c-0.79-0.11-1.59-0.17-2.39-0.16c-2.35,0.01-4.65,0.49-6.9,1.09c-5.33,1.42-10.3,3.8-15.31,6.04
				c-3.28,1.47-6.16,3.68-9.05,5.82c-2.18,1.61-4.32,3.27-6.52,4.84c-2.85,2.02-5.45,4.32-7.88,6.81
				C190.73,123.95,188.69,126.06,186.59,128.11z"/>
			<path class="st0" d="M186.2,103.04c-0.45,1.05-0.83,2.12-1.3,3.16c-1.06,2.33-2.14,4.66-3.26,6.97c-0.57,1.18-1.2,2.33-1.86,3.46
				c-1.07,1.82-2.25,3.57-3.27,5.41c-1.55,2.82-3.33,5.44-5.59,7.73c-0.56,0.57-0.68,1.2-0.26,1.86c0.34,0.55,0.79,1.04,1.25,1.5
				c0.59,0.58,1.4,0.72,2.16,0.97c0.77,0.26,1.5,0.22,2.18-0.3c0.36-0.28,0.74-0.54,1.14-0.75c2.17-1.17,4.17-2.56,6-4.22
				c2.87-2.61,5.76-5.2,8.26-8.18c1.76-2.1,3.45-4.25,5.15-6.39c3.43-4.3,6.87-8.59,10.25-12.94c2.78-3.58,5.47-7.23,8.5-10.61
				c1.96-2.19,4.03-4.27,6.03-6.42c1.31-1.4,2.58-2.83,3.53-4.5c0.34-0.6,0.54-1.31,0.69-2c0.13-0.57-0.02-0.79-0.57-0.97
				c-0.61-0.2-1.25-0.3-1.88-0.45c-1.37,0.17-3.84,0.52-5.81,1.15c-4.57,1.46-9.01,3.19-12.97,5.98c-3.08,2.17-6.14,4.37-8.67,7.19
				c-3.2,3.56-6.34,7.18-9.06,11.13C186.57,102.2,186.38,102.62,186.2,103.04z"/>
			<path class="st0" d="M206.64,145c-0.98,0.13-1.98,0.28-2.92,0.59c-2,0.65-3.98,1.38-5.95,2.12c-3.2,1.19-6.42,2.33-9.73,3.19
				c-1.62,0.43-3.26,0.86-4.92,1.05c-1.95,0.23-3.93,0.19-5.89,0.28c-0.79,0.03-1.58-0.07-2.34,0.29c-0.99,0.47-1.37,1.21-1.33,2.36
				c0.02,0.67,0.65,1.19,1.32,1.21c2.59,0.05,5.18,0.07,7.77,0.17c2.8,0.11,5.58-0.07,8.36-0.34c1.67-0.16,3.34-0.37,5-0.58
				c2.4-0.31,4.78-0.79,7.21-0.77c0.85,0.01,1.7-0.13,2.55-0.21c2.64-0.25,5.27-0.6,7.91-0.73c4.01-0.19,8.03-0.21,12.05-0.31
				c0,0.03,0,0.05,0,0.08c3.19,0.07,6.38,0.15,9.58,0.19c2.14,0.03,4.28-0.05,6.37-0.55c0.57-0.14,1.14-0.37,1.64-0.68
				c0.82-0.52,1.03-1.29,0.61-2.15c-0.23-0.47-0.56-0.94-0.97-1.27c-0.64-0.52-1.37-0.92-2.07-1.36c-1.72-1.06-3.67-1.54-5.54-2.19
				c-3.08-1.08-6.23-1.8-9.5-1.92c-4.09-0.14-8.14,0.22-12.19,0.71C211.33,144.46,208.98,144.7,206.64,145z"/>
			<path class="st0" d="M199,156.59c-1.64,0.12-3.27,0.44-4.91,0.62c-2.24,0.24-4.47,0.5-6.72,0.6c-2.3,0.1-4.62-0.04-6.93,0.01
				c-2.79,0.06-5.57-0.41-8.37-0.03c-1.22,0.17-2.34,0.48-3.33,1.21c-0.85,0.62-1.66,1.3-2.49,1.95c-1.5,1.18-2.15,2.83-2.57,4.6
				c-0.07,0.28-0.01,0.59-0.01,0.92c0.28,0.03,0.36,0.06,0.45,0.05c3.58-0.11,7.16-0.36,10.72,0.4c2.4,0.51,4.53,1.47,6.29,3.22
				c0.45,0.45,1.03,0.83,1.62,1.07c4.16,1.65,8.25,3.43,12.26,5.42c2.14,1.06,4.32,2.06,6.56,2.89c2.64,0.98,5.35,1.75,8.04,2.58
				c6.24,1.93,12.55,3.53,19.14,3.61c1.19,0.02,2.4-0.02,3.58-0.16c0.71-0.08,1.39-0.41,2.2-0.67c-0.25-0.56-0.44-0.99-0.63-1.42
				c-0.57-1.28-0.22-2.13,1.07-2.66c0.21-0.09,0.43-0.16,0.65-0.19c0.59-0.09,1.18-0.15,1.78-0.22c1.32-0.15,1.73-0.57,1.82-1.9
				c0.02-0.34-0.01-0.68-0.06-1.02c-0.14-0.89-0.53-1.68-1.04-2.41c-1.33-1.92-2.81-3.72-4.38-5.47
				c-4.02-4.47-12.95-10.19-19.95-11.21c-3.71-0.54-7.36-1.51-11.13-1.67C201.44,156.65,200.21,156.51,199,156.59z"/>
			<path class="st0" d="M256.65,131.44c-4.12-2.57-8.57-4.06-13.49-3.93c-0.34,0-0.69,0.02-1.03,0c-1.96-0.13-3.76,0.38-5.53,1.21
				c-1.85,0.87-3.73,1.72-5.65,2.41c-4.74,1.71-9.49,3.39-14.27,4.95c-5.49,1.79-11.02,3.47-16.55,5.13
				c-2.51,0.75-5.08,1.25-7.6,1.96c-3.01,0.85-5.99,1.82-8.99,2.7c-1.69,0.5-3.41,0.91-5.19,0.97c-0.7,0.03-1.25,0.37-1.75,0.81
				c-0.66,0.59-0.85,1.26-0.57,1.9c0.28,0.64,1.14,1.09,1.91,1.05c1.05-0.06,2.11-0.08,3.16-0.15c0.94-0.06,1.89-0.07,2.8-0.28
				c2.19-0.5,4.39-1.01,6.52-1.7c3.6-1.17,7.15-2.49,10.72-3.72c1.37-0.47,2.75-0.95,4.15-1.3c3.03-0.76,6.12-1.31,9.12-2.2
				c2.7-0.8,5.46-1.39,8.19-2.08c1.9-0.48,3.79-1.02,5.71-1.43c1.47-0.32,2.99-0.41,4.46-0.74c3.55-0.81,7.16-1.01,10.77-1.24
				c3.67-0.24,7.35-0.33,11.02-0.54c1.07-0.06,2.15-0.24,3.19-0.5c0.89-0.22,1.14-1.01,0.57-1.72
				C257.85,132.41,257.29,131.84,256.65,131.44z"/>
			<path class="st0" d="M179.55,170.92c-0.69-0.5-1.36-1.04-2.12-1.43c-1.8-0.92-3.79-1.31-5.77-1.37
				c-3.19-0.09-6.38,0.07-9.57,0.12c-0.23,0-0.46,0.02-0.68,0c-0.65-0.06-1.3-0.13-1.89-0.2c-1.11,0.1-2.17,0.16-3.21,0.3
				c-2.43,0.33-4.67,1.26-6.82,2.37c-1.07,0.55-1.97,1.36-2.57,2.44c-0.38,0.7-0.79,1.39-1.13,2.1c-1.49,3.11-2.97,6.22-4.43,9.34
				c-0.09,0.2-0.09,0.49-0.03,0.72c0.16,0.63,0.39,1.25,0.57,1.88c0.57,1.99,1.38,3.87,2.56,5.56c1.87,2.68,4.46,4.1,7.76,4.09
				c1.83-0.01,3.64,0.15,5.46,0.29c1.15,0.09,2.36,0.02,3.47-0.27c3.02-0.81,5.25-2.7,6.57-5.55c0.96-2.07,1.7-4.21,1.43-6.59
				c-0.18-1.51,0.57-2.64,1.94-3.31c0.43-0.21,0.9-0.36,1.36-0.48c0.88-0.23,1.78-0.4,2.65-0.65c1.12-0.32,2.1-0.92,2.85-1.81
				c1.37-1.61,2-3.56,2.37-5.6C180.44,172.12,180.21,171.4,179.55,170.92z"/>
			<path class="st0" d="M60.98,192.84c0.76-0.92,1.48-1.88,2.22-2.82c0.11-0.14,0.21-0.27,0.32-0.41c-0.5,0.12-0.91,0.31-1.32,0.48
				c-1.34,0.56-2.66,1.16-4.02,1.67c-1.27,0.47-2.58,0.42-3.85-0.03c-1.73-0.6-2.45-2.13-1.77-3.82c0.24-0.6,0.6-1.16,0.98-1.69
				c1.31-1.83,3.01-3.25,4.82-4.57c0.5-0.36,1.01-0.72,1.51-1.08c-0.01-0.05-0.03-0.11-0.04-0.16c-0.17,0.01-0.34,0-0.5,0.03
				c-1.08,0.24-2.17,0.45-3.24,0.74c-4.99,1.38-9.65,3.56-14.14,6.11c-0.78,0.44-1.49,1.05-2.16,1.66
				c-0.77,0.71-1.22,1.64-1.43,2.67c-0.16,0.77-0.05,0.93,0.64,1.27c0.46,0.22,0.93,0.43,1.37,0.69c0.62,0.36,1.1,0.9,1.14,1.61
				c0.05,0.89,0.58,1.14,1.3,1.3c2.48,0.56,4.99,0.51,7.48,0.28c2.5-0.23,4.91-0.94,7.22-1.94c0.83-0.36,1.69-0.69,2.49-1.11
				C60.37,193.54,60.69,193.19,60.98,192.84z"/>
			<path class="st0" d="M144.58,174.18c0.3-0.57,0.28-1.14-0.15-1.59c-0.62-0.63-1.33-1.15-2.27-1.25
				c-1.68-0.18-3.32,0.03-4.84,0.75c-1.17,0.56-2.17,1.36-2.42,2.79c-0.09,0.49-0.31,1-0.6,1.4c-0.73,1.01-1.47,2.04-2.34,2.93
				c-2.6,2.69-5.43,5.13-8.49,7.29c-3.75,2.64-7.52,5.25-11.37,7.93c-0.56,2.39-0.59,4.95-0.62,7.51c-0.01,0.68,0.07,1.37,0.23,2.03
				c0.29,1.22,0.75,2.4,1,3.62c0.35,1.72,1.17,3.21,2.18,4.59c0.83,1.14,1.86,2.09,3.24,2.55c0.6,0.2,1.22,0.31,1.77-0.2
				c0.87-0.82,1.93-1.17,3.11-1.25c0.68-0.04,1.31-0.28,1.78-0.75c0.72-0.73,1.48-1.45,2.04-2.29c0.92-1.37,1.75-2.81,2.52-4.27
				c1.56-2.95,3.08-5.91,4.56-8.9c1.2-2.42,2.44-4.84,3.45-7.35c1.78-4.42,3.82-8.71,5.91-12.98
				C143.67,175.89,144.13,175.04,144.58,174.18z"/>
			<path class="st0" d="M54.77,187.28c-0.28,0.39-0.54,0.81-0.7,1.26c-0.31,0.84-0.04,1.37,0.82,1.66c0.43,0.14,0.89,0.17,1.22,0.23
				c0.47-0.03,0.82-0.01,1.14-0.1c0.58-0.15,1.15-0.33,1.7-0.57c2.33-1,4.65-2.01,6.96-3.06c7.76-3.51,15.77-6.39,23.85-9.07
				c3.54-1.17,7.1-2.28,10.67-3.33c4.05-1.19,8.22-1.81,12.36-2.6c2.07-0.4,4.15-0.73,6.11-1.54c0.73-0.3,1.45-0.67,2.09-1.13
				c0.69-0.49,1.04-1.18,0.72-2.09c-0.38-1.09-1-1.72-1.98-1.72c-0.46,0-0.96,0.16-1.37,0.37c-1.06,0.54-2.06,1.21-3.14,1.71
				c-3.17,1.48-6.48,2.55-9.98,2.78c-3.16,0.21-6.33,0.25-9.49,0.21c-1.79-0.02-3.46,0.22-5.16,0.83c-3.75,1.35-7.6,2.37-11.52,3.13
				c-2.71,0.53-5.39,1.18-7.9,2.4c-1.41,0.69-2.84,1.32-4.28,1.93c-2.85,1.21-5.47,2.8-7.95,4.65
				C57.36,184.41,55.9,185.68,54.77,187.28z"/>
			<path class="st0" d="M89.79,186.53c3.64-2.95,7.71-5.17,11.92-7.15c3.64-1.71,7.45-2.98,11.31-4.08
				c3.64-1.03,7.29-2.02,10.83-3.39c0.2-0.08,0.38-0.17,0.65-0.28c-0.89-0.48-1.68-0.92-2.51-1.37c-0.99,0.77-2.09,1.27-3.26,1.69
				c-2.56,0.92-5.26,1.25-7.9,1.8c-2.73,0.57-5.5,0.98-8.19,1.68c-6.09,1.59-12.08,3.51-17.99,5.66c-4.71,1.71-9.37,3.56-14.06,5.31
				c-1.57,0.59-2.93,1.43-4.13,2.63c-1.47,1.48-2.95,2.94-4.1,4.69c-0.86,1.31-1.69,2.64-2.54,3.96c-1.03,1.61-1.49,3.45-1.97,5.26
				c-0.32,1.21-0.02,1.46,1.22,1.32c1.02-0.12,1.9,0,2.33,1.28c0.62-0.3,1.17-0.49,1.63-0.79c1.22-0.8,2.4-1.64,3.59-2.47
				c3.87-2.67,7.74-5.35,11.62-8c2.91-1.99,5.85-3.95,8.78-5.92C87.95,187.75,88.94,187.22,89.79,186.53z"/>
			<path class="st0" d="M121.33,186.04c3.44-2.36,6.63-5.03,9.54-8.02c0.71-0.73,1.33-1.56,1.96-2.36c0.84-1.06,0.65-2.24,0.26-3.38
				c-0.14-0.42-0.51-0.84-0.89-1.1c-1.26-0.87-2.59-0.97-3.92-0.12c-0.43,0.28-0.81,0.65-1.26,0.87c-1.97,0.95-3.84,2.12-5.97,2.71
				c-1.1,0.3-2.17,0.69-3.26,1.01c-3.85,1.11-7.73,2.14-11.48,3.59c-4.75,1.83-9.27,4.1-13.44,7.03c-1.58,1.11-3.13,2.28-4.68,3.44
				c-0.27,0.2-0.52,0.45-0.7,0.73c-1.42,2.2-2.93,4.36-3.67,6.92c-0.31,1.06-0.52,2.15-0.67,2.8c0.03,1.6,0.42,3.2,0.9,3.88
				c0.85,1.2,1.34,1.27,2.44,0.78c0.16-0.07,0.32-0.13,0.47-0.19c0.7-0.29,1.41-0.31,2.05,0.11c0.92,0.62,1.81,0.52,2.72,0.02
				c0.3-0.16,0.62-0.28,0.91-0.46c1.93-1.16,3.86-2.32,5.77-3.5c3.87-2.4,7.73-4.83,11.6-7.23c0.77-0.48,1.61-0.86,2.36-1.37
				C115.37,190.15,118.34,188.09,121.33,186.04z"/>
		</g>
		<path d="M257.83,130.27c-1.15-0.89-2.45-1.55-3.8-2.1c-2.54-1.03-5.11-1.94-7.86-2.22c-0.68-0.07-1.37-0.12-2.26-0.19
			c0.45-0.21,0.7-0.33,0.95-0.46c2.31-1.11,4.63-2.19,6.92-3.35c1.98-1,3.93-2.08,5.88-3.13c0.32-0.17,0.66-0.36,0.92-0.61
			c0.5-0.47,0.49-1.06-0.05-1.48c-0.35-0.28-0.78-0.47-1.2-0.64c-1.77-0.71-3.67-0.74-5.52-1.04c-1.22-0.2-2.44-0.03-3.67-0.03
			c-1.91,0-3.81,0.05-5.71,0.37c-2.78,0.46-5.57,0.81-8.27,1.7c-1.78,0.59-3.61,1.02-5.41,1.56c-1.83,0.55-3.65,1.11-5.45,1.71
			c-2.7,0.9-5.39,1.83-8.08,2.75c-0.23,0.08-0.47,0.12-0.7,0.18c0.16-0.3,0.37-0.47,0.6-0.63c1.01-0.69,2.02-1.4,3.04-2.06
			c1.53-0.99,3.02-2.08,4.63-2.91c2.91-1.5,5.87-2.9,8.87-4.21c2.19-0.95,4.5-1.62,6.7-2.54c3.14-1.31,6.43-2.11,9.66-3.12
			c1.17-0.36,2.35-0.66,3.53-1.01c0.52-0.16,0.96-0.47,0.97-1.06c0-0.63-0.52-0.82-1.02-0.99c-2.27-0.74-4.61-1.06-6.99-0.95
			c-1.67,0.08-3.35,0.27-5,0.57c-3.72,0.68-7.38,1.65-11.03,2.67c-0.17,0.05-0.35,0.06-0.52,0.09c0.1-0.19,0.24-0.28,0.39-0.36
			c3.58-1.95,7.17-3.86,10.93-5.44c1.44-0.6,2.84-1.33,4.19-2.12c1.19-0.69,1.16-1.62,0.07-2.43c-0.95-0.7-2.02-0.99-3.19-1.09
			c-2.79-0.26-5.53,0.13-8.21,0.82c-2.34,0.6-4.65,1.36-6.9,2.23c-3.03,1.17-5.99,2.5-8.97,3.77c-0.52,0.22-1.04,0.48-1.53,0.75
			c-2.89,1.61-5.63,3.47-8.29,5.44c-2.06,1.53-4.1,3.08-6.16,4.62c-0.26,0.19-0.54,0.36-0.81,0.54c0.08-0.35,0.24-0.57,0.41-0.79
			c2.92-3.73,5.88-7.42,8.74-11.19c4.34-5.74,8.87-11.31,13.99-16.38c1.48-1.46,2.79-3.09,3.88-4.88c0.59-0.97,0.94-2.01,0.92-3.16
			c-0.02-0.97-0.43-1.65-1.35-2.08c-1.13-0.53-2.29-0.66-3.5-0.53c-1.96,0.21-3.88,0.56-5.76,1.16c-4.77,1.53-9.37,3.38-13.48,6.31
			c-3.07,2.19-6.11,4.41-8.65,7.22c-1.66,1.84-3.24,3.76-4.85,5.64c-0.21,0.25-0.42,0.5-0.63,0.75c-0.05-0.03-0.1-0.06-0.16-0.09
			c0.27-0.62,0.53-1.23,0.8-1.85c1.71-3.85,3.47-7.69,4.75-11.72c0.96-3.03,2.26-5.9,3.76-8.69c0.43-0.8,0.85-1.62,1.16-2.47
			c0.37-1.01-0.24-1.72-1.3-1.56c-0.62,0.09-1.23,0.24-1.82,0.43c-2.95,0.99-5.81,2.18-8.43,3.88c-1.22,0.79-2.41,1.63-3.59,2.47
			c-3.39,2.39-6.33,5.22-8.61,8.7c-0.85,1.3-1.82,2.48-3.07,3.42c-0.43,0.32-0.79,0.73-1.19,1.11c-2.26,2.17-4.15,4.62-5.78,7.29
			c-0.89,1.46-1.78,2.92-2.39,4.53c-1.98,5.16-3.33,10.47-4.17,15.93c-0.38,2.44-0.44,4.88,0,7.32c0.07,0.41,0.11,0.82,0.16,1.26
			c-1.57-0.09-3.04-0.18-4.47-0.26c0.26-1.64,0.51-3.24,0.78-4.84c0.3-1.83,0.7-3.64,0.91-5.48c0.27-2.32,0.43-4.65,0.6-6.99
			c0.18-2.53,0.21-5.07-0.04-7.61c-0.24-2.5-0.51-4.99-0.77-7.49c-0.26-2.41-0.47-4.82-0.8-7.22c-0.26-1.89-0.72-3.75-1.66-5.45
			c-0.94-1.71-2.32-2.87-4.29-3.21c-1.3-0.23-2.61-0.22-3.91,0.03c-4.12,0.78-7.13,3.09-9.29,6.64c-1.23,2.02-1.94,4.24-2.57,6.49
			c-0.54,1.91-0.64,3.81-0.19,5.74c0.23,1,0.44,2.01,0.52,3.03c0.26,3.35,0.46,6.71,0.67,10.07c0.03,0.5,0,1,0,1.69
			c-0.26-0.39-0.43-0.64-0.59-0.89c-2.83-4.45-5.66-8.9-8.5-13.34c-0.97-1.51-1.96-3.01-2.97-4.5c-0.99-1.47-2.09-2.85-3.36-4.09
			c-0.87-0.84-1.85-1.52-2.95-2.01c-1.49-0.66-3.08-0.32-4.08,0.97c-0.59,0.76-1.08,1.61-1.48,2.48c-1.09,2.4-1.66,4.96-2.05,7.57
			c-0.39,2.61-0.49,5.22-0.22,7.84c0.03,0.26,0,0.54,0,0.84c-0.35-0.08-0.63-0.14-0.91-0.21c-1.38-0.36-2.78-0.35-4.16-0.15
			c-2.65,0.37-5.25,1.01-7.82,1.78c-2.16,0.65-4.23,1.54-6.1,2.83c-1.06,0.73-1.88,1.64-2.28,2.9c-0.25,0.81-0.16,1.61-0.01,2.48
			c-0.57-0.07-1.07-0.12-1.57-0.18c-3.11-0.4-6.08,0.11-8.9,1.42c-2.91,1.36-5.57,3.12-7.97,5.26c-0.59,0.53-1.14,1.12-1.62,1.75
			c-0.72,0.94-0.9,2.03-0.47,3.15c0.53,1.39,1.34,2.57,2.68,3.33c0.3,0.17,0.6,0.37,0.86,0.53c-1.01,0.88-1.98,1.67-2.89,2.54
			c-2.34,2.25-1.63,7.26,1.74,8.1c0.36,0.09,0.69,0.29,1.18,0.5c-0.41,0.15-0.65,0.24-0.88,0.32c-2.74,0.89-5.44,1.87-8.04,3.1
			c-2.11,0.99-4,2.31-5.56,4.06c-0.69,0.77-1.26,1.62-1.58,2.62c-0.46,1.46,0.03,2.58,1.42,3.24c1.12,0.53,2.3,0.61,3.51,0.43
			c0.99-0.15,1.97-0.35,2.96-0.4c2.93-0.15,5.87-0.25,8.8-0.37c1.94-0.08,3.88-0.13,5.81-0.26c2.33-0.16,4.65-0.43,6.98-0.58
			c2.62-0.16,5.24-0.23,7.86-0.35c4.4-0.21,8.78-0.01,13.14,0.52c0.25,0.03,0.49,0.1,0.74,0.16c-3.05,0.53-6.09,0.82-9.14,0.83
			c-1.94,0.01-3.87-0.13-5.81-0.23c-2.94-0.16-5.86-0.07-8.76,0.53c-2.93,0.6-5.87,1.11-8.81,1.63c-1.82,0.33-3.69,0.48-5.46,0.95
			c-3.35,0.9-6.67,1.93-9.97,2.99c-4.62,1.49-9.06,3.38-13.29,5.79c-2.14,1.22-3.95,2.85-5.55,4.65c-1.6,1.8-1.61,4.06,1.46,5.07
			c0.05,0.02,0.11,0.02,0.17,0.03c1.61,0.37,3.25,0.39,4.84,0.05c2.44-0.53,4.86-1.21,7.27-1.86c4.48-1.21,8.98-2.32,13.58-3.02
			c2.31-0.35,4.62-0.68,6.93-0.97c2.06-0.26,4.13-0.55,6.2-0.66c2.82-0.15,5.65-0.14,8.47-0.19c0.17,0,0.34,0.03,0.51,0.05
			c-0.33,0.24-0.65,0.36-0.97,0.46c-2.91,0.91-5.87,1.62-8.85,2.23c-2.46,0.5-4.89,1.07-7.19,2.13c-2.12,0.98-4.25,1.93-6.39,2.88
			c-0.26,0.11-0.53,0.23-0.8,0.26c-3.4,0.39-6.76,1.06-10.01,2.09c-4.41,1.39-8.59,3.34-12.62,5.62c-0.72,0.4-1.38,0.91-2.03,1.41
			c-1.46,1.13-2.33,2.63-2.66,4.45c-0.22,1.19,0.2,2.07,1.27,2.63c0.3,0.16,0.62,0.3,0.93,0.42c0.66,0.26,1.07,0.69,1.14,1.44
			c0.07,0.82,0.56,1.35,1.31,1.65c0.34,0.14,0.69,0.26,1.05,0.35c2.44,0.62,4.92,0.6,7.4,0.41c2.83-0.21,5.55-0.93,8.16-2.06
			c0.25-0.11,0.51-0.18,0.8-0.28c-0.02,0.14,0,0.21-0.03,0.25c-1.16,1.7-1.7,3.66-2.3,5.59c-0.29,0.94-0.42,1.89,0,2.84
			c0.32,0.72,0.85,1.13,1.65,1.13c0.54,0,1.08,0,1.62,0c0.8,1.17,1.38,1.37,2.75,0.92c0.32-0.11,0.64-0.24,0.94-0.41
			c0.45-0.25,0.89-0.51,1.32-0.79c3.97-2.72,7.95-5.45,11.91-8.19c2.37-1.64,4.71-3.31,7.07-4.97c0.22-0.15,0.46-0.27,0.86-0.5
			c-0.15,0.3-0.2,0.43-0.27,0.54c-0.87,1.25-1.45,2.65-1.91,4.09c-0.52,1.65-1.04,3.32-0.71,5.11c0.21,1.12,0.39,2.26,1.07,3.21
			c0.57,0.79,1.22,1.51,2.25,1.73c0.81,0.17,1.52-0.08,2.23-0.4c0.47-0.21,0.91-0.27,1.38,0.01c1.15,0.7,2.35,0.68,3.51,0.08
			c1.49-0.77,2.98-1.55,4.41-2.44c3.51-2.18,6.98-4.42,10.48-6.63c0.87-0.55,1.74-1.08,2.62-1.62c0.18-0.11,0.38-0.17,0.58-0.25
			c-0.1,1.83-0.2,3.6-0.29,5.36c-0.1,1.84,0.12,3.64,0.71,5.39c0.22,0.65,0.47,1.29,0.6,1.96c0.38,1.93,1.33,3.58,2.49,5.11
			c1.14,1.5,2.53,2.7,4.43,3.17c1.06,0.26,2.04,0.14,2.87-0.64c0.54-0.51,1.17-0.77,1.92-0.83c1.07-0.08,2.11-0.36,2.9-1.12
			c0.86-0.82,1.73-1.68,2.39-2.66c1.01-1.48,1.89-3.06,2.73-4.64c1.47-2.77,2.91-5.55,4.29-8.37c1.64-3.35,3.36-6.67,4.65-10.18
			c0.07-0.2,0.18-0.4,0.35-0.78c0.11,0.32,0.15,0.42,0.18,0.53c0.61,2.13,1.49,4.14,2.77,5.94c2.37,3.34,5.62,4.97,9.74,4.8
			c0.71-0.03,1.42,0.02,2.13,0.05c1.45,0.07,2.9,0.15,4.35,0.22c1.74,0.08,3.32-0.47,4.79-1.32c2.69-1.55,4.61-3.78,5.64-6.73
			c0.66-1.89,1.27-3.79,1.02-5.84c-0.02-0.14,0.02-0.29,0.04-0.44c0.06-0.01,0.13-0.02,0.19-0.03c0.61,1.46,1.34,2.89,1.82,4.4
			c2.03,6.36,3.55,12.86,4.77,19.41c1.02,5.52,1.87,11.08,2.54,16.65c0.74,6.11,1.18,12.26,1.78,18.39
			c0.39,3.97,0.85,7.94,1.28,11.9c0.25,2.3,0.52,4.59,0.77,6.88c0.15,1.43-0.02,1.49,1.54,1.4c2.07-0.12,4.15-0.28,6.22-0.44
			c0.71-0.06,1.42-0.15,2.11-0.29c0.52-0.11,0.63-0.36,0.54-0.88c-0.19-1.03-0.42-2.06-0.57-3.1c-0.4-2.82-0.78-5.65-1.14-8.47
			c-0.32-2.57-0.57-5.16-0.9-7.73c-0.47-3.73-0.95-7.47-1.48-11.19c-0.58-4.06-1.16-8.13-1.83-12.17c-0.7-4.24-1.53-8.47-2.26-12.71
			c-1.08-6.3-2.33-12.55-4.3-18.64c-0.89-2.73-1.74-5.47-2.65-8.3c1.29-1.53,1.97-3.45,2.5-5.45c0.26-0.99,0.65-1.19,1.61-0.8
			c3.56,1.45,7.09,2.97,10.53,4.69c1.78,0.89,3.56,1.83,5.43,2.5c5.73,2.08,11.53,3.92,17.46,5.34c4.85,1.16,9.74,1.76,14.73,1.54
			c1.2-0.05,2.29-0.41,3.38-0.84c0.87-0.35,1.26-1.07,1.11-1.99c-0.07-0.41-0.26-0.81-0.4-1.21c-0.09-0.25-0.21-0.5-0.33-0.78
			c0.26-0.12,0.44-0.24,0.62-0.27c0.62-0.1,1.24-0.19,1.86-0.23c1.47-0.1,2.43-0.78,2.84-2.17c0.17-0.59,0.24-1.23,0.24-1.85
			c-0.01-1.39-0.56-2.61-1.31-3.74c-3.68-5.5-8.37-9.92-14.16-13.15c-1.74-0.97-3.53-1.86-5.36-2.63c-2.98-1.27-6.2-1.67-9.35-2.31
			c-0.6-0.12-1.2-0.23-1.8-0.35c1.37-0.25,2.72-0.45,4.08-0.49c3.51-0.12,7.01-0.22,10.52-0.25c3.02-0.02,6.05,0.01,9.07,0.13
			c2.37,0.09,4.73,0.09,7.09-0.13c0.93-0.09,1.86-0.28,2.77-0.5c0.92-0.22,1.78-0.61,2.45-1.32c0.9-0.96,1.16-2.06,0.76-3.32
			c-0.33-1.05-0.98-1.86-1.86-2.49c-1.45-1.02-2.97-1.93-4.65-2.51c-2.2-0.77-4.43-1.49-6.67-2.12c-3.49-0.98-7.08-1.09-10.68-0.94
			c-1.25,0.05-2.5,0.12-3.75,0.18c0.29-0.15,0.59-0.24,0.89-0.31c1.6-0.38,3.21-0.76,4.82-1.15c1.82-0.44,3.64-0.95,5.47-1.33
			c1.62-0.33,3.26-0.54,4.89-0.78c1.6-0.24,3.2-0.5,4.81-0.7c0.87-0.11,1.76-0.12,2.64-0.17c2.87-0.16,5.75-0.31,8.62-0.47
			c2.05-0.12,4.1-0.23,6.14-0.4c0.73-0.06,1.47-0.23,2.16-0.48c1.76-0.64,2.39-2.6,1.28-4.11
			C259.18,131.42,258.53,130.8,257.83,130.27z M222.95,122.21c2.92-1.05,5.91-1.87,8.9-2.72c1.78-0.51,3.53-1.13,5.33-1.53
			c2.05-0.45,4.15-0.7,6.23-1.05c2.46-0.42,4.95-0.36,7.42-0.29c1.58,0.05,3.16,0.4,4.73,0.63c0.26,0.04,0.51,0.16,0.78,0.24
			c-0.06,0.1-0.07,0.17-0.11,0.19c-2.25,1.22-4.48,2.49-6.77,3.64c-3.69,1.84-7.47,3.5-11.32,5c-2.31,0.89-4.51,2.05-6.83,2.92
			c-3.41,1.28-6.9,2.33-10.31,3.61c-5.63,2.11-11.45,3.61-17.15,5.49c-4.04,1.32-8.15,2.32-12.25,3.41
			c-2.75,0.73-5.44,1.66-8.18,2.45c-1.31,0.38-2.65,0.65-3.99,0.92c-0.4,0.08-0.85,0-1.26-0.1c-1.14-0.3-1.46-1.57-0.61-2.41
			c0.39-0.39,0.88-0.61,1.44-0.68c2.54-0.28,4.95-1.03,7.31-1.99c5.51-2.25,10.61-5.25,15.63-8.42c1.57-0.99,3.13-1.99,4.65-3.05
			c2.26-1.56,4.78-2.49,7.37-3.31C216.97,124.22,219.99,123.28,222.95,122.21z M234.05,107.26c2.15-0.54,4.32-1,6.51-1.37
			c1.54-0.26,3.11-0.35,4.67-0.44c1.22-0.08,2.43,0.14,3.78,0.37c-2.31,0.7-4.46,1.33-6.6,2c-1.17,0.36-2.33,0.75-3.47,1.17
			c-2.48,0.91-5,1.75-7.42,2.81c-3.24,1.41-6.43,2.91-9.57,4.52c-1.69,0.86-3.26,1.99-4.84,3.06c-3.26,2.2-6.45,4.5-9.74,6.65
			c-4,2.62-8.04,5.2-12.14,7.66c-3.56,2.14-7.3,3.97-11.22,5.39c-1.47,0.54-2.99,0.93-4.54,1.16c-0.53,0.08-1.05,0.26-1.58,0.35
			c-0.37,0.06-0.77,0.05-0.92-0.4c-0.14-0.41,0.06-0.73,0.37-0.97c0.2-0.15,0.43-0.29,0.66-0.37c3.72-1.35,7.08-3.37,10.48-5.35
			c3-1.75,6.06-3.4,9.13-5.03c2.81-1.49,5.41-3.27,7.88-5.25c3.79-3.02,7.57-6.05,11.33-9.1c2.04-1.65,4.29-2.85,6.77-3.71
			C227.04,109.2,230.52,108.16,234.05,107.26z M200.67,115.05c2.21-1.57,4.35-3.23,6.52-4.84c2.89-2.14,5.77-4.34,9.05-5.82
			c5.01-2.25,9.98-4.63,15.31-6.04c2.25-0.6,4.55-1.08,6.9-1.09c0.8,0,1.6,0.06,2.39,0.16c0.49,0.07,0.96,0.28,1.45,0.42
			c0.01,0.08,0.02,0.16,0.03,0.25c-0.68,0.35-1.35,0.72-2.04,1.04c-2.28,1.04-4.62,1.96-6.83,3.13c-4.05,2.14-8.18,4.16-12.05,6.63
			c-4,2.55-7.65,5.56-11.31,8.56c-3,2.45-6.08,4.81-9.2,7.11c-1.34,0.99-2.85,1.77-4.32,2.59c-3.79,2.14-7.63,4.21-11.4,6.4
			c-2.2,1.28-4.45,2.42-6.79,3.39c-0.34,0.14-0.66,0.33-1,0.47c-0.28,0.11-0.59,0.24-0.89,0.23c-0.76-0.01-1.13-0.65-0.73-1.3
			c0.19-0.31,0.46-0.58,0.75-0.8c0.45-0.34,0.93-0.67,1.44-0.93c3.26-1.68,6.05-3.97,8.65-6.5c2.1-2.05,4.15-4.16,6.2-6.26
			C195.23,119.37,197.82,117.07,200.67,115.05z M195.89,90.7c2.53-2.82,5.59-5.02,8.67-7.19c3.96-2.79,8.4-4.52,12.97-5.98
			c1.97-0.63,4.44-0.98,5.81-1.15c0.63,0.14,1.27,0.24,1.88,0.45c0.55,0.18,0.7,0.4,0.57,0.97c-0.15,0.68-0.35,1.39-0.69,2
			c-0.95,1.67-2.22,3.1-3.53,4.5c-2.01,2.14-4.08,4.23-6.03,6.42c-3.02,3.38-5.71,7.03-8.5,10.61c-3.37,4.34-6.82,8.63-10.25,12.94
			c-1.7,2.14-3.4,4.29-5.15,6.39c-2.5,2.98-5.38,5.57-8.26,8.18c-1.83,1.66-3.83,3.05-6,4.22c-0.4,0.21-0.78,0.47-1.14,0.75
			c-0.67,0.53-1.4,0.56-2.18,0.3c-0.75-0.25-1.57-0.39-2.16-0.97c-0.46-0.46-0.91-0.95-1.25-1.5c-0.42-0.67-0.3-1.29,0.26-1.86
			c2.26-2.3,4.04-4.92,5.59-7.73c1.01-1.85,2.2-3.6,3.27-5.41c0.66-1.13,1.29-2.28,1.86-3.46c1.12-2.31,2.2-4.63,3.26-6.97
			c0.47-1.04,0.86-2.11,1.3-3.16c0.18-0.42,0.37-0.84,0.63-1.21C189.55,97.88,192.69,94.27,195.89,90.7z M160.89,116.99
			c0.87-5.36,2.17-10.6,4.27-15.62c0.56-1.33,1.36-2.56,2.1-3.81c1.95-3.33,4.49-6.16,7.43-8.65c0.66-0.56,1.2-1.29,1.75-1.98
			c1.25-1.59,2.39-3.27,3.74-4.77c1.16-1.28,2.5-2.42,3.85-3.51c3.05-2.46,6.34-4.55,9.98-6.04c1.03-0.42,2.08-0.76,3.13-1.13
			c0.13-0.04,0.26-0.05,0.49-0.09c-0.13,0.31-0.19,0.55-0.32,0.76c-2.09,3.65-3.58,7.56-4.91,11.53c-1.25,3.73-3.01,7.26-4.54,10.88
			c-0.79,1.89-1.47,3.83-2.26,5.71c-1.3,3.06-2.65,6.11-3.99,9.15c-0.34,0.78-0.75,1.53-1.09,2.32c-0.88,2.02-2.04,3.88-3.19,5.75
			c-1.33,2.16-2.6,4.36-3.89,6.53c-1.04,1.75-2.44,3.22-3.76,4.76c-0.73,0.85-1.79,1.1-2.83,1.26c-1.01,0.16-2.07,0.3-3.04-0.12
			c-1.56-0.67-2.54-1.87-2.79-3.59c-0.11-0.79-0.18-1.59-0.31-2.37C160.31,121.62,160.52,119.3,160.89,116.99z M135.35,91.21
			c0.61-2.14,1.22-4.26,2.37-6.2c2.15-3.64,5.23-5.79,9.47-6.17c0.73-0.06,1.49,0,2.21,0.14c1.34,0.25,2.3,1.07,2.97,2.25
			c0.81,1.44,1.24,3.01,1.47,4.62c0.34,2.34,0.57,4.7,0.83,7.05c0.28,2.52,0.55,5.04,0.78,7.57c0.14,1.5,0.18,3.02,0.28,4.65
			c-0.22,3.01-0.38,6.14-0.69,9.26c-0.19,1.9-0.61,3.77-0.92,5.65c-0.25,1.49-0.43,2.99-0.77,4.46c-0.24,1.04-0.59,2.09-1.09,3.02
			c-1.05,1.98-2.71,3.2-4.98,3.46c-1.6,0.19-3.13-0.07-4.54-0.87c-1.25-0.72-2.05-1.74-2.2-3.23c-0.31-3-1.21-5.85-2.32-8.64
			c-0.41-1.03-0.88-2.04-1.27-3.08c-0.2-0.53-0.35-1.09-0.39-1.65c-0.1-1.68-0.09-3.36-0.19-5.04c-0.19-3.3-0.41-6.6-0.66-9.9
			c-0.06-0.85-0.28-1.68-0.45-2.52C134.92,94.41,134.89,92.82,135.35,91.21z M110.15,101.15c0.03-2.62,0.48-5.37,1.25-8.06
			c0.32-1.12,0.75-2.21,1.21-3.28c0.23-0.54,0.59-1.04,0.96-1.51c0.66-0.83,1.4-1.03,2.34-0.52c0.84,0.46,1.64,1.02,2.36,1.66
			c1.4,1.23,2.49,2.75,3.49,4.31c3.96,6.16,7.96,12.3,11.81,18.53c2.36,3.83,3.94,8.02,4.95,12.41c0.24,1.02,0.47,2.07,0.5,3.12
			c0.09,3.07-1.09,5.14-4.34,6.09c-0.3,0.09-0.6,0.19-0.91,0.23c-0.48,0.05-0.98,0.17-1.43,0.05c-0.79-0.2-1.63-0.44-2.3-0.88
			c-1.22-0.8-2.53-1.41-3.8-2.11c-3.3-1.81-6.01-4.3-8.33-7.24c-3.73-4.73-6.03-10.11-7.25-15.96
			C110.21,105.8,109.99,103.58,110.15,101.15z M88.91,113.61c0.29-0.96,0.94-1.61,1.73-2.15c1.23-0.85,2.55-1.51,3.95-2.01
			c3.33-1.19,6.76-2,10.28-2.38c1.11-0.16,2.16,0.12,3.2,0.42c0.6,0.17,0.9,0.53,1.05,1.17c0.93,4.04,2.24,7.96,4.34,11.55
			c2.4,4.12,5.31,7.83,9.23,10.65c1.56,1.12,3.24,2.01,4.98,2.81c0.8,0.37,1.5,0.88,2.15,1.45c0.8,0.71,0.89,1.52,0.2,2.35
			c-1.72,2.05-5.06,2.9-7.37,0.28c-0.21-0.24-0.4-0.49-0.63-0.7c-1.78-1.64-3.57-3.27-5.35-4.92c-1.11-1.02-2.16-2.12-3.31-3.09
			c-1.94-1.64-3.91-3.24-6.21-4.36c-0.41-0.2-0.79-0.46-1.16-0.72c-3.39-2.41-7.08-4.24-10.91-5.8c-1.27-0.51-2.53-1.04-3.81-1.5
			c-0.75-0.27-1.34-0.73-1.92-1.25C88.78,114.92,88.7,114.31,88.91,113.61z M68.48,126.69c-0.37-0.78-0.26-1.48,0.28-2.15
			c0.88-1.11,2.01-1.94,3.1-2.81c1.84-1.46,3.86-2.63,5.99-3.6c2.61-1.19,5.35-1.49,8.18-1.11c2.02,0.27,3.96,0.83,5.83,1.61
			c2.73,1.15,5.46,2.29,8.12,3.6c1.7,0.84,3.27,1.96,4.9,2.96c0.49,0.3,0.95,0.64,1.45,0.91c3.21,1.69,5.93,4.01,8.51,6.54
			c1.65,1.62,3.39,3.14,5.08,4.71c0.67,0.62,1.33,1.24,1.98,1.88c0.12,0.11,0.22,0.29,0.24,0.44c0.19,1.57-0.01,3-1.34,4.1
			c-0.78,0.65-1.63,1.02-2.66,0.93c-0.62-0.06-1.25-0.09-1.88-0.13c-3.29-0.05-6.53-0.48-9.72-1.27c-4.78-1.18-9.57-2.32-14.17-4.11
			c-3.37-1.31-6.69-2.73-9.9-4.4c-2.52-1.32-5.16-2.4-7.73-3.63c-1.41-0.67-2.78-1.44-4.18-2.15
			C69.57,128.49,68.94,127.67,68.48,126.69z M69.33,139.71c-0.79-0.29-1.19-0.92-1.41-1.7c-0.45-1.62-0.04-2.97,1.24-4.06
			c0.87-0.74,1.7-1.52,2.77-1.97c0.25-0.1,0.44-0.15,0.72-0.02c2.68,1.26,5.37,2.47,8.04,3.74c2.69,1.28,5.37,2.61,8.25,4.02
			c-1.3,0-2.43,0.02-3.56,0c-3.58-0.08-7.1,0.34-10.57,1.16c-0.71,0.17-1.42,0.19-2.1-0.02C71.58,140.51,70.45,140.11,69.33,139.71z
			 M101.33,152.26c-3.18-0.29-6.37-0.35-9.56-0.13c-1.39,0.1-2.79,0.18-4.18,0.21c-3.45,0.07-6.89,0.28-10.32,0.66
			c-0.88,0.1-1.76,0.16-2.64,0.19c-2.51,0.09-5.02,0.1-7.52,0.24c-2.61,0.15-5.24,0.09-7.83,0.59c-0.8,0.16-1.64,0.18-2.45-0.11
			c-1.04-0.38-1.26-0.75-0.79-1.72c0.33-0.68,0.77-1.34,1.28-1.9c1.33-1.48,2.95-2.61,4.75-3.44c4.96-2.28,10.11-3.97,15.49-4.91
			c2.3-0.4,4.62-0.65,6.97-0.6c1,0.02,2,0,2.99,0c0,0,0,0.01,0,0.01c1.88,0,3.76-0.01,5.64,0.01c0.28,0,0.56,0.07,0.83,0.16
			c4.84,1.49,9.7,2.9,14.68,3.88c2.51,0.49,5.06,0.79,7.64,0.75c0.31-0.01,0.63-0.01,0.94,0.02c0.76,0.08,1.26,0.58,1.29,1.34
			c0.04,0.97-0.01,1.94-0.42,2.85c-0.31,0.67-0.57,1.37-0.9,2.03c-0.62,1.22-1.66,1.96-3.37,1.59c-2.3-0.51-4.65-0.79-6.99-1.11
			C105.01,152.63,103.17,152.43,101.33,152.26z M80.32,168.51c-1.9,0.02-3.8,0.29-5.7,0.5c-2.04,0.23-4.06,0.52-6.1,0.79
			c-4.29,0.56-8.53,1.43-12.72,2.5c-3.2,0.82-6.37,1.72-9.56,2.55c-1.69,0.44-3.42,0.61-5.16,0.28c-0.11-0.02-0.23-0.03-0.34-0.06
			c-1.46-0.4-1.8-1.43-0.71-2.51c1.59-1.59,3.18-3.17,5.18-4.3c4.13-2.34,8.47-4.18,12.99-5.63c3.3-1.06,6.63-2.06,9.97-2.97
			c1.5-0.41,3.08-0.52,4.62-0.8c3-0.54,5.99-1.08,8.98-1.66c2.25-0.44,4.5-0.71,6.79-0.61c2.31,0.1,4.61,0.24,6.92,0.27
			c1.65,0.02,3.31-0.02,4.95-0.17c2.66-0.24,5.32-0.6,7.98-0.88c1.63-0.18,3.25-0.03,4.85,0.2c0.93,0.14,1.83,0.38,2.75,0.58
			c0.73,0.16,1.19,0.67,1.51,1.28c0.22,0.42,0.42,0.9,0.48,1.37c0.2,1.45,0.22,2.89-0.34,4.29c-0.32,0.81-0.99,1.24-1.69,1.62
			c-1.96,1.07-4.06,1.79-6.19,2.42c-2.14,0.63-4.34,0.92-6.57,1c-1.6,0.06-3.19,0.13-4.79,0.17c-0.97,0.03-1.94,0-2.9,0
			c0-0.07,0-0.14,0-0.22C90.46,168.53,85.39,168.46,80.32,168.51z M66.87,178.6c1.44-0.61,2.88-1.24,4.28-1.93
			c2.51-1.22,5.19-1.88,7.9-2.4c3.92-0.76,7.77-1.78,11.52-3.13c1.7-0.61,3.37-0.85,5.16-0.83c3.16,0.04,6.33,0,9.49-0.21
			c3.5-0.23,6.81-1.3,9.98-2.78c1.08-0.5,2.08-1.17,3.14-1.71c0.42-0.21,0.91-0.37,1.37-0.37c0.98,0,1.6,0.63,1.98,1.72
			c0.32,0.91-0.03,1.6-0.72,2.09c-0.64,0.46-1.36,0.83-2.09,1.13c-1.96,0.81-4.05,1.14-6.11,1.54c-4.13,0.79-8.31,1.4-12.36,2.6
			c-3.57,1.05-7.14,2.16-10.67,3.33c-8.08,2.68-16.08,5.56-23.85,9.07c-2.31,1.04-4.63,2.05-6.96,3.06
			c-0.55,0.24-1.12,0.42-1.7,0.57c-0.32,0.09-0.68,0.06-1.14,0.1c-0.33-0.06-0.79-0.09-1.22-0.23c-0.86-0.29-1.13-0.82-0.82-1.66
			c0.16-0.45,0.43-0.87,0.7-1.26c1.13-1.6,2.6-2.87,4.16-4.03C61.4,181.4,64.02,179.81,66.87,178.6z M57.5,194.85
			c-2.31,1-4.73,1.71-7.22,1.94c-2.49,0.23-5.01,0.28-7.48-0.28c-0.71-0.16-1.25-0.42-1.3-1.3c-0.04-0.72-0.52-1.26-1.14-1.61
			c-0.44-0.25-0.91-0.47-1.37-0.69c-0.7-0.33-0.8-0.5-0.64-1.27c0.21-1.03,0.65-1.96,1.43-2.67c0.67-0.61,1.38-1.22,2.16-1.66
			c4.49-2.55,9.15-4.73,14.14-6.11c1.07-0.3,2.16-0.5,3.24-0.74c0.16-0.04,0.33-0.02,0.5-0.03c0.01,0.05,0.03,0.11,0.04,0.16
			c-0.5,0.36-1.01,0.72-1.51,1.08c-1.8,1.31-3.51,2.73-4.82,4.57c-0.38,0.53-0.74,1.09-0.98,1.69c-0.67,1.7,0.04,3.22,1.77,3.82
			c1.27,0.44,2.59,0.49,3.85,0.03c1.36-0.5,2.68-1.1,4.02-1.67c0.42-0.18,0.83-0.37,1.32-0.48c-0.11,0.14-0.21,0.27-0.32,0.41
			c-0.74,0.94-1.46,1.9-2.22,2.82c-0.28,0.34-0.61,0.7-0.99,0.9C59.18,194.17,58.33,194.49,57.5,194.85z M78.25,194.29
			c-3.88,2.65-7.75,5.33-11.62,8c-1.2,0.83-2.38,1.67-3.59,2.47c-0.47,0.3-1.01,0.49-1.63,0.79c-0.43-1.28-1.31-1.4-2.33-1.28
			c-1.24,0.14-1.54-0.11-1.22-1.32c0.48-1.81,0.94-3.65,1.97-5.26c0.85-1.32,1.68-2.65,2.54-3.96c1.15-1.76,2.63-3.21,4.1-4.69
			c1.2-1.2,2.56-2.04,4.13-2.63c4.69-1.76,9.35-3.6,14.06-5.31c5.91-2.15,11.9-4.07,17.99-5.66c2.69-0.7,5.46-1.12,8.19-1.68
			c2.64-0.55,5.34-0.88,7.9-1.8c1.16-0.42,2.27-0.91,3.26-1.69c0.83,0.45,1.62,0.89,2.51,1.37c-0.27,0.12-0.45,0.21-0.65,0.28
			c-3.54,1.36-7.19,2.35-10.83,3.39c-3.86,1.1-7.67,2.37-11.31,4.08c-4.21,1.98-8.28,4.2-11.92,7.15c-0.86,0.69-1.84,1.23-2.76,1.84
			C84.1,190.34,81.16,192.3,78.25,194.29z M110.01,193.55c-3.87,2.41-7.73,4.83-11.6,7.23c-1.91,1.19-3.84,2.34-5.77,3.5
			c-0.29,0.18-0.62,0.3-0.91,0.46c-0.91,0.5-1.8,0.6-2.72-0.02c-0.64-0.42-1.35-0.4-2.05-0.11c-0.16,0.07-0.32,0.12-0.47,0.19
			c-1.09,0.5-1.59,0.42-2.44-0.78c-0.48-0.68-0.87-2.28-0.9-3.88c0.15-0.65,0.36-1.74,0.67-2.8c0.74-2.55,2.25-4.71,3.67-6.92
			c0.18-0.28,0.44-0.53,0.7-0.73c1.55-1.16,3.1-2.33,4.68-3.44c4.17-2.93,8.69-5.2,13.44-7.03c3.75-1.45,7.63-2.48,11.48-3.59
			c1.09-0.32,2.17-0.7,3.26-1.01c2.14-0.59,4-1.76,5.97-2.71c0.46-0.22,0.83-0.6,1.26-0.87c1.33-0.85,2.66-0.75,3.92,0.12
			c0.38,0.26,0.75,0.68,0.89,1.1c0.39,1.14,0.58,2.32-0.26,3.38c-0.64,0.8-1.25,1.63-1.96,2.36c-2.91,2.99-6.1,5.66-9.54,8.02
			c-2.98,2.05-5.95,4.11-8.95,6.14C111.63,192.69,110.79,193.07,110.01,193.55z M137.34,189.74c-1.01,2.51-2.25,4.92-3.45,7.35
			c-1.48,2.99-3,5.95-4.56,8.9c-0.77,1.46-1.6,2.9-2.52,4.27c-0.56,0.84-1.32,1.56-2.04,2.29c-0.47,0.47-1.1,0.71-1.78,0.75
			c-1.17,0.08-2.24,0.43-3.11,1.25c-0.54,0.51-1.16,0.4-1.77,0.2c-1.38-0.46-2.41-1.41-3.24-2.55c-1.01-1.38-1.83-2.87-2.18-4.59
			c-0.25-1.22-0.71-2.4-1-3.62c-0.16-0.66-0.24-1.35-0.23-2.03c0.04-2.56,0.07-5.13,0.62-7.51c3.85-2.68,7.62-5.29,11.37-7.93
			c3.06-2.16,5.89-4.6,8.49-7.29c0.87-0.9,1.6-1.92,2.34-2.93c0.29-0.4,0.52-0.91,0.6-1.4c0.25-1.44,1.25-2.24,2.42-2.79
			c1.51-0.72,3.16-0.93,4.84-0.75c0.94,0.1,1.65,0.62,2.27,1.25c0.44,0.45,0.45,1.02,0.15,1.59c-0.45,0.86-0.91,1.71-1.33,2.58
			C141.15,181.03,139.12,185.32,137.34,189.74z M180.3,172.89c-0.37,2.04-1,3.99-2.37,5.6c-0.75,0.89-1.73,1.49-2.85,1.81
			c-0.87,0.25-1.77,0.41-2.65,0.65c-0.46,0.12-0.93,0.27-1.36,0.48c-1.37,0.67-2.11,1.8-1.94,3.31c0.28,2.38-0.47,4.51-1.43,6.59
			c-1.32,2.85-3.55,4.73-6.57,5.55c-1.11,0.3-2.32,0.36-3.47,0.27c-1.82-0.14-3.63-0.3-5.46-0.29c-3.29,0.02-5.88-1.41-7.76-4.09
			c-1.18-1.69-2-3.57-2.56-5.56c-0.18-0.63-0.41-1.25-0.57-1.88c-0.06-0.22-0.06-0.51,0.03-0.72c1.46-3.12,2.94-6.23,4.43-9.34
			c0.34-0.72,0.75-1.41,1.13-2.1c0.6-1.09,1.5-1.89,2.57-2.44c2.15-1.11,4.39-2.04,6.82-2.37c1.04-0.14,2.09-0.2,3.21-0.3
			c0.59,0.06,1.24,0.14,1.89,0.2c0.23,0.02,0.46,0,0.68,0c3.19-0.05,6.38-0.21,9.57-0.12c1.98,0.06,3.97,0.44,5.77,1.37
			c0.75,0.39,1.43,0.93,2.12,1.43C180.21,171.4,180.44,172.12,180.3,172.89z M213.79,158.38c7,1.02,15.93,6.74,19.95,11.21
			c1.57,1.74,3.04,3.54,4.38,5.47c0.51,0.73,0.89,1.52,1.04,2.41c0.05,0.34,0.08,0.68,0.06,1.02c-0.09,1.33-0.5,1.75-1.82,1.9
			c-0.59,0.07-1.19,0.13-1.78,0.22c-0.22,0.03-0.44,0.11-0.65,0.19c-1.3,0.53-1.64,1.38-1.07,2.66c0.19,0.43,0.38,0.86,0.63,1.42
			c-0.81,0.26-1.49,0.59-2.2,0.67c-1.18,0.14-2.39,0.17-3.58,0.16c-6.59-0.08-12.9-1.68-19.14-3.61c-2.69-0.83-5.4-1.6-8.04-2.58
			c-2.24-0.83-4.42-1.83-6.56-2.89c-4.01-1.98-8.1-3.77-12.26-5.42c-0.59-0.23-1.17-0.62-1.62-1.07c-1.76-1.76-3.88-2.71-6.29-3.22
			c-3.56-0.76-7.14-0.52-10.72-0.4c-0.08,0-0.17-0.02-0.45-0.05c0-0.33-0.06-0.64,0.01-0.92c0.43-1.77,1.08-3.43,2.57-4.6
			c0.83-0.65,1.64-1.33,2.49-1.95c0.99-0.72,2.11-1.04,3.33-1.21c2.8-0.38,5.58,0.09,8.37,0.03c2.31-0.05,4.62,0.09,6.93-0.01
			c2.24-0.1,4.48-0.36,6.72-0.6c1.64-0.18,3.27-0.5,4.91-0.62c1.21-0.09,2.44,0.06,3.66,0.11
			C206.43,156.87,210.07,157.84,213.79,158.38z M225.86,143.46c3.28,0.11,6.42,0.84,9.5,1.92c1.88,0.66,3.83,1.13,5.54,2.19
			c0.7,0.44,1.43,0.84,2.07,1.36c0.4,0.33,0.74,0.8,0.97,1.27c0.42,0.86,0.21,1.63-0.61,2.15c-0.49,0.31-1.07,0.55-1.64,0.68
			c-2.09,0.5-4.23,0.58-6.37,0.55c-3.19-0.05-6.38-0.13-9.58-0.19c0-0.03,0-0.05,0-0.08c-4.02,0.09-8.04,0.12-12.05,0.31
			c-2.64,0.12-5.27,0.48-7.91,0.73c-0.85,0.08-1.7,0.22-2.55,0.21c-2.44-0.01-4.81,0.46-7.21,0.77c-1.66,0.21-3.33,0.42-5,0.58
			c-2.78,0.26-5.56,0.45-8.36,0.34c-2.59-0.1-5.18-0.12-7.77-0.17c-0.67-0.01-1.3-0.53-1.32-1.21c-0.04-1.15,0.34-1.89,1.33-2.36
			c0.76-0.36,1.55-0.25,2.34-0.29c1.96-0.08,3.94-0.05,5.89-0.28c1.66-0.19,3.3-0.63,4.92-1.05c3.3-0.87,6.52-2.01,9.73-3.19
			c1.97-0.73,3.95-1.47,5.95-2.12c0.94-0.3,1.94-0.46,2.92-0.59c2.34-0.31,4.69-0.55,7.04-0.83
			C217.72,143.69,221.78,143.32,225.86,143.46z M257.75,134.73c-1.04,0.26-2.12,0.44-3.19,0.5c-3.67,0.21-7.35,0.31-11.02,0.54
			c-3.61,0.23-7.22,0.43-10.77,1.24c-1.47,0.33-2.99,0.42-4.46,0.74c-1.92,0.42-3.81,0.95-5.71,1.43c-2.73,0.69-5.49,1.27-8.19,2.08
			c-3.01,0.9-6.09,1.45-9.12,2.2c-1.4,0.35-2.78,0.83-4.15,1.3c-3.58,1.23-7.13,2.56-10.72,3.72c-2.13,0.69-4.33,1.2-6.52,1.7
			c-0.91,0.21-1.86,0.22-2.8,0.28c-1.05,0.07-2.11,0.09-3.16,0.15c-0.76,0.05-1.63-0.41-1.91-1.05c-0.28-0.64-0.09-1.31,0.57-1.9
			c0.5-0.44,1.05-0.79,1.75-0.81c1.78-0.07,3.49-0.48,5.19-0.97c3-0.88,5.98-1.85,8.99-2.7c2.52-0.71,5.1-1.22,7.6-1.96
			c5.53-1.65,11.06-3.34,16.55-5.13c4.79-1.56,9.54-3.25,14.27-4.95c1.92-0.69,3.8-1.54,5.65-2.41c1.76-0.83,3.57-1.34,5.53-1.21
			c0.34,0.02,0.68,0,1.03,0c4.91-0.13,9.37,1.36,13.49,3.93c0.64,0.4,1.19,0.97,1.67,1.56
			C258.89,133.72,258.64,134.51,257.75,134.73z"/>
	</g>
</g>
</svg>
